<?xml version="1.0" encoding="UTF-8"?>
<svg xmlns="http://www.w3.org/2000/svg" xmlns:xlink="http://www.w3.org/1999/xlink" width="210px" height="210px" viewBox="0 0 210 210" version="1.1">
    <!-- Generator: Sketch 53.2 (72643) - https://sketchapp.com -->
    <title>Fast Shipping</title>
    <desc>Created with Sketch.</desc>
    <defs>
        <polygon id="path-1" points="9.77007731e-05 0.151814634 153.425854 0.151814634 153.425854 179.121863 9.77007731e-05 179.121863"/>
    </defs>
    <g id="Fast-Shipping" stroke="none" stroke-width="1" fill-rule="evenodd">
        <g id="color-1" transform="translate(28.000000, 15.000000)">
            <g id="Group-3" transform="translate(0.000000, 0.727024)">
                <mask id="mask-2" fill="white">
                    <use xlink:href="#path-1"/>
                </mask>
                <g id="color-1"/>
                <path d="M148.035776,128.884302 C143.447093,148.362059 134.005434,158.08118 115.45841,162.435424 C114.143971,162.741863 112.768068,163.058839 111.343873,163.384595 C100.300654,165.907229 86.5583122,169.047132 77.4810439,174.691229 L76.7232878,175.160985 L75.9655317,174.691229 C66.9075805,169.062059 53.1889463,165.921278 42.1650439,163.399522 C40.7171415,163.068498 39.3175317,162.746254 37.9846537,162.435424 C19.4270927,158.08118 9.99070244,148.35679 5.40640976,128.884302 C1.29187317,111.405863 4.2605561,89.4686927 6.8832878,70.1156195 C7.06592195,68.7783512 7.2432878,67.4498634 7.42065366,66.1310341 L7.5023122,65.5225463 C8.05372683,61.1586439 9.03626341,53.1130829 9.2952878,50.1689854 C10.3164585,38.6937659 7.02201951,24.0742537 4.97001951,16.3781561 L4.6205561,15.0733756 L5.90075122,14.6422537 C8.16436098,13.8844976 10.4701171,13.1697659 12.9541171,12.4646927 C25.425922,8.93142439 39.8206537,6.34644878 55.7449463,4.7879122 C64.0451415,3.97747317 70.283678,3.57971707 75.9611415,3.50332683 C81.5955805,3.57971707 87.9201659,3.96342439 95.9033854,4.70625366 C111.846995,6.1884 125.685922,8.53366829 138.200751,11.8702537 C141.475873,12.7430341 144.616654,13.6781561 147.537044,14.6510341 L148.817239,15.0786439 L148.466898,16.3825463 C146.414898,24.0742537 143.120459,38.6893756 144.146898,50.1689854 C144.419971,53.275522 145.493824,61.9734732 146.02241,66.1406927 C146.199776,67.478839 146.381532,68.8266439 146.568556,70.1832293 C149.181629,89.5169854 152.145044,111.42518 148.035776,128.884302 M149.896361,69.7371805 C149.713727,68.3849854 149.531971,67.0424488 149.353727,65.713961 C148.826898,61.5616683 147.767093,52.9304488 147.49402,49.8765951 C146.515873,38.9097659 149.718995,24.7310341 151.713044,17.2553268 L152.873824,12.9010829 L148.596849,11.4724976 C145.609727,10.4750341 142.401337,9.51620488 139.063873,8.62849756 C126.36202,5.24361951 112.345727,2.86586341 96.2107024,1.36879024 C88.1361659,0.616302439 81.7290439,0.228204878 76.0428,0.151814634 L75.9751902,0.151814634 L75.9084585,0.151814634 C70.1300195,0.232595122 63.8107024,0.631229268 55.4095317,1.45571707 C39.2885561,3.03269268 24.6918732,5.65630244 12.0286537,9.24225366 C9.49197073,9.96225366 7.1370439,10.6910341 4.82162927,11.4672293 L0.554312195,12.9010829 L1.71421463,17.2500585 C3.71353171,24.7310341 6.91753171,38.9194244 5.93850732,49.8809854 C5.68036098,52.7767902 4.70660488,60.7556195 4.15958049,65.1002049 L4.07792195,65.6946439 C3.9005561,67.0134732 3.72319024,68.3366927 3.54143415,69.674839 C0.885336585,89.3159122 -2.13163902,111.578839 2.12689756,129.661376 C6.98426341,150.299034 17.4751902,161.077961 37.2075805,165.709668 C38.5448488,166.026644 39.9506049,166.34801 41.4028976,166.679034 C52.1818244,169.143717 65.5940195,172.212498 74.1769463,177.549278 L76.709239,179.121863 L79.2406537,177.549278 C87.8481659,172.202839 101.28319,169.134059 112.082312,166.664107 C113.516166,166.338351 114.896459,166.021376 116.215288,165.709668 C135.94241,161.077961 146.428946,150.299034 151.295971,129.661376 C155.554507,111.593766 152.548068,89.3536683 149.896361,69.7371805" id="color-1" mask="url(#mask-2)"/>
            </g>
            <path d="M94.4606634,123.229229 L94.4606634,141.838595 L96.0955902,141.838595 C96.7672976,139.402888 99.0010537,137.604644 101.648371,137.604644 C104.29481,137.604644 106.529444,139.39762 107.201151,141.838595 L109.18642,141.838595 L109.18642,132.396937 L101.154907,123.229229 L94.4606634,123.229229 Z"/>
            <path d="M70.2311707,140.644361 C68.7349756,140.644361 67.517122,141.862215 67.517122,143.35841 C67.517122,144.854605 68.7349756,146.072459 70.2311707,146.072459 C71.7273659,146.072459 72.9452195,144.854605 72.9452195,143.35841 C72.9452195,141.862215 71.7273659,140.644361 70.2311707,140.644361"/>
            <path d="M63.0241463,141.83842 L64.6783902,141.83842 C65.3492195,139.402712 67.5838537,137.604468 70.2311707,137.604468 C72.8776098,137.604468 75.1122439,139.397444 75.7839512,141.83842 L91.4202439,141.83842 L91.4202439,115.460956 L63.0241463,115.460956 L63.0241463,141.83842 Z"/>
            <path d="M101.647932,140.644361 C100.151737,140.644361 98.9338829,141.862215 98.9338829,143.35841 C98.9338829,144.854605 100.151737,146.072459 101.647932,146.072459 C103.144127,146.072459 104.36198,144.854605 104.36198,143.35841 C104.36198,141.862215 103.144127,140.644361 101.647932,140.644361"/>
            <path d="M82.281161,80.7685463 L82.281161,87.4382049 L83.4990146,87.4382049 C84.6352098,87.4382049 85.4886732,87.1510829 86.0497463,86.5706927 C86.6160878,85.9903024 86.8988195,85.1517659 86.8988195,84.0436683 C86.8988195,82.9267902 86.6635024,82.1014244 86.1893561,81.5693268 C85.7143317,81.0372293 84.9758927,80.7685463 83.9643805,80.7685463 L82.281161,80.7685463 Z"/>
            <path d="M66.9419122,80.7685463 L66.9419122,87.4382049 L68.1597659,87.4382049 C69.295961,87.4382049 70.1494244,87.1510829 70.7104976,86.5706927 C71.276839,85.9903024 71.5595707,85.1517659 71.5595707,84.0436683 C71.5595707,82.9267902 71.3242537,82.1014244 70.8492293,81.5693268 C70.3750829,81.0372293 69.6366439,80.7685463 68.6251317,80.7685463 L66.9419122,80.7685463 Z"/>
            <path d="M135.401356,98.366839 C134.27921,98.8365951 133.224673,99.1676195 132.236868,99.3590341 C131.249063,99.5513268 130.236673,99.6417659 129.200576,99.6417659 C126.568185,99.6417659 124.55921,98.6443024 123.173649,96.6546439 C121.788088,94.6649854 121.092673,91.8016683 121.092673,88.0717171 C121.092673,84.4462537 121.897844,81.6171805 123.509063,79.5888878 C125.120283,77.5605951 127.349649,76.5490829 130.207698,76.5490829 C131.996283,76.5490829 133.722527,77.0091805 135.382039,77.9302537 L134.154527,81.7418634 C132.883112,80.9217659 131.559893,80.5143512 130.18399,80.5143512 C128.58682,80.5143512 127.306624,81.2053756 126.343405,82.5909366 C125.379307,83.9712293 124.899893,85.8326927 124.899893,88.1674244 C124.899893,90.6031317 125.28799,92.4689854 126.065063,93.7535707 C126.842137,95.0390341 127.968673,95.6808878 129.445551,95.6808878 C130.217356,95.6808878 130.99882,95.5807902 131.79521,95.3744488 L131.79521,90.6900585 L128.491112,90.6900585 L128.491112,86.719522 L135.401356,86.719522 L135.401356,98.366839 Z M117.4716,99.3309366 L112.773161,99.3309366 L105.18682,82.3363024 L105.081454,82.3363024 C105.230722,85.3383512 105.307112,87.477278 105.307112,88.7574732 L105.307112,99.3309366 L102.003015,99.3309366 L102.003015,76.8660585 L106.668088,76.8660585 L114.239502,93.6912293 L114.321161,93.6912293 C114.201746,90.7717171 114.143795,88.7091805 114.143795,87.5009854 L114.143795,76.8704488 L117.4716,76.8704488 L117.4716,99.3309366 Z M112.235795,143.3484 C112.235795,144.188693 111.555307,144.86918 110.715893,144.86918 L107.206332,144.86918 C106.534624,147.304888 104.29999,149.103132 101.652673,149.103132 C99.0062341,149.103132 96.7716,147.309278 96.1007707,144.86918 L75.7888683,144.86918 C75.118039,147.304888 72.8834049,149.103132 70.2360878,149.103132 C67.5896488,149.103132 65.3550146,147.309278 64.6833073,144.86918 L61.5038927,144.86918 C60.6653561,144.86918 59.9839902,144.188693 59.9839902,143.3484 L59.9839902,141.8004 L51.1710146,141.8004 C50.3316,141.8004 49.6511122,141.119034 49.6511122,140.27962 C49.6511122,139.441083 50.3316,138.759717 51.1710146,138.759717 L59.9839902,138.759717 L59.9839902,119.028205 L45.345161,119.028205 C44.5057463,119.028205 43.8252585,118.347717 43.8252585,117.508302 C43.8252585,116.669766 44.5057463,115.9884 45.345161,115.9884 L59.9839902,115.9884 L59.9839902,113.935522 C59.9839902,113.096985 60.6653561,112.41562 61.5038927,112.41562 L92.9450634,112.41562 C93.784478,112.41562 94.4649659,113.096985 94.4649659,113.935522 L94.4649659,120.184595 L101.844966,120.184595 C102.285746,120.184595 102.70282,120.37162 102.99082,120.701766 L111.857356,130.823912 C112.097063,131.102254 112.230527,131.457863 112.235795,131.816985 L112.235795,143.3484 Z M46.1503317,141.810059 L45.3398927,141.810059 C44.5013561,141.810059 43.8199902,141.128693 43.8199902,140.290156 C43.8199902,139.450741 44.5013561,138.770254 45.3398927,138.770254 L46.1503317,138.770254 C46.9897463,138.770254 47.6702341,139.450741 47.6702341,140.290156 C47.6702341,141.128693 46.9897463,141.810059 46.1503317,141.810059 L46.1503317,141.810059 Z M37.336478,130.262839 C36.4979415,130.262839 35.8165756,129.582351 35.8165756,128.742937 C35.8165756,127.9044 36.4979415,127.223034 37.336478,127.223034 L53.6497463,127.223034 C54.489161,127.223034 55.1696488,127.9044 55.1696488,128.742937 C55.1696488,129.582351 54.489161,130.262839 53.6497463,130.262839 L37.336478,130.262839 Z M31.6168683,97.8874244 C30.4850634,99.0525951 28.9072098,99.6373756 26.8885756,99.6373756 C25.0279902,99.6373756 23.3834049,99.1869366 21.9495512,98.2851805 L21.9495512,93.8589366 C23.1243805,94.5350341 24.1218439,95.0100585 24.9366732,95.2884 C25.7523805,95.5667415 26.4952098,95.7054732 27.1713073,95.7054732 C27.9817463,95.7054732 28.605161,95.503522 29.0362829,95.1057659 C29.4682829,94.7080098 29.6886732,94.1135707 29.6886732,93.3224488 C29.6886732,92.8807902 29.5929659,92.4883024 29.4006732,92.1476195 C29.2092585,91.8069366 28.9309171,91.4759122 28.5621366,91.1545463 C28.192478,90.8384488 27.4399902,90.3300585 26.3037951,89.6346439 C25.238722,88.987522 24.4379415,88.3684976 23.9058439,87.7749366 C23.3737463,87.1796195 22.9470146,86.4894732 22.630039,85.6974732 C22.3139415,84.9116195 22.1550146,83.9861561 22.1550146,82.9316195 C22.1550146,80.9463512 22.6783317,79.3825463 23.7240878,78.2463512 C24.7689659,77.1101561 26.212478,76.5394244 28.0581366,76.5394244 C28.9642829,76.5394244 29.8274049,76.6781561 30.6527707,76.9564976 C31.4772585,77.234839 32.3351122,77.6229366 33.232478,78.1269366 L32.0383317,81.8287902 C31.108478,81.3344488 30.3410634,80.9937659 29.7316976,80.7970829 C29.1223317,80.601278 28.5235024,80.5046927 27.9378439,80.5046927 C27.238039,80.5046927 26.7006732,80.7154244 26.3266244,81.1333756 C25.9534537,81.5557171 25.7664293,82.1018634 25.7664293,82.777961 C25.7664293,83.2003024 25.8428195,83.5646927 25.9920878,83.8764 C26.1396,84.1881073 26.3845756,84.489278 26.7112098,84.7816683 C27.0369659,85.0749366 27.8228195,85.5973756 29.0556,86.3551317 C30.6861366,87.3569854 31.8030146,88.3641073 32.4079902,89.3756195 C33.0120878,90.3924 33.3141366,91.6295707 33.3141366,93.0924 C33.3141366,95.1206927 32.7477951,96.7169854 31.6168683,97.8874244 L31.6168683,97.8874244 Z M40.1664293,89.6346439 L40.1664293,99.3309366 L36.4689659,99.3309366 L36.4689659,76.8660585 L40.1664293,76.8660585 L40.1664293,85.6693756 L47.0705268,85.6693756 L47.0705268,76.8660585 L50.7583317,76.8660585 L50.7583317,99.3309366 L47.0705268,99.3309366 L47.0705268,89.6346439 L40.1664293,89.6346439 Z M55.1608683,99.3309366 L58.8574537,99.3309366 L58.8574537,76.8660585 L55.1608683,76.8660585 L55.1608683,99.3309366 Z M75.2901366,83.875522 C75.2901366,86.2927902 74.704478,88.142839 73.5305268,89.4239122 C72.3548195,90.7041073 70.6917951,91.346839 68.529161,91.346839 L66.9416488,91.346839 L66.9416488,99.3353268 L63.2441854,99.3353268 L63.2441854,76.8704488 L68.8162829,76.8704488 C70.9315024,76.8704488 72.5374537,77.4552293 73.6402829,78.6300585 C74.7431122,79.7996195 75.2901366,81.5504488 75.2901366,83.875522 L75.2901366,83.875522 Z M90.6296488,83.875522 C90.6296488,86.2927902 90.0439902,88.142839 88.869161,89.4239122 C87.6943317,90.7041073 86.0304293,91.346839 83.8686732,91.346839 L82.281161,91.346839 L82.281161,99.3353268 L78.5845756,99.3353268 L78.5845756,76.8704488 L84.1557951,76.8704488 C86.2710146,76.8704488 87.8769659,77.4552293 88.9797951,78.6300585 C90.0782341,79.7996195 90.6296488,81.5504488 90.6296488,83.875522 L90.6296488,83.875522 Z M93.9188195,99.3309366 L97.6154049,99.3309366 L97.6154049,76.8660585 L93.9188195,76.8660585 L93.9188195,99.3309366 Z M143.695405,71.1561073 L143.65238,70.8145463 L143.197551,67.1838146 L143.164185,67.1838146 L10.2785268,67.1838146 L10.048478,67.1838146 L9.4013561,72.3484976 L9.57345366,72.3484976 C7.0271122,91.1782537 4.28496585,112.32079 8.19755122,128.949278 C12.5465268,147.433961 21.082039,156.238156 38.6359902,160.361473 C39.9653561,160.67318 41.3553073,160.990156 42.7988195,161.32118 C53.7314049,163.82362 67.2726732,166.921376 76.7143317,172.511912 C86.1796976,166.907327 99.7446732,163.809571 110.696576,161.306254 C112.115502,160.980498 113.487015,160.66879 114.791795,160.361473 C132.346624,156.242546 140.87599,147.433961 145.235502,128.949278 C149.224478,112.013473 146.299698,90.3827415 143.7156,71.2983512 C143.708576,71.2500585 143.702429,71.203522 143.695405,71.1561073 L143.695405,71.1561073 Z"/>
            <polygon points="70.4514732 27.9557561 76.7189854 23.382 82.9856195 27.9557561 80.5736195 20.5766341 86.8595707 16.0309756 79.1020098 16.0450244 76.7189854 8.66063415 74.335961 16.0450244 66.577522 16.0309756 72.8634732 20.5766341"/>
            <polygon points="40.2094537 28.7857756 43.8103317 26.1630439 47.4068195 28.7857756 46.0212585 24.5518244 49.6274049 21.9431415 45.1765756 21.9528 43.8103317 17.7135805 42.4388195 21.9528 37.9897463 21.9431415 41.5950146 24.5518244"/>
            <polygon points="106.030888 28.7857756 109.627376 26.1630439 113.228254 28.7857756 111.842693 24.5518244 115.448839 21.9431415 110.998888 21.9528 109.627376 17.7135805 108.261132 21.9528 103.81118 21.9431415 107.417327 24.5518244"/>
            <polygon points="37.9216976 52.7558927 46.1261854 52.7558927 47.4204293 46.7816488 39.2554537 46.7816488 40.3433561 41.5546244 49.1668683 41.5546244 50.422478 35.6181366 34.2777951 35.6181366 28.4905756 63.002722 35.8126244 63.002722"/>
            <path d="M66.4188585,43.1278244 C66.8789561,42.130361 67.2626634,41.0942634 67.560322,40.0204098 C67.507639,40.7202146 67.4830537,41.5403122 67.4830537,42.4754341 L67.5216878,44.0866537 L67.8386634,52.0268488 L62.3482244,52.0268488 L66.4188585,43.1278244 Z M57.3319317,63.0033366 L59.6719317,57.8720195 L68.0634439,57.8720195 L68.2504683,63.0033366 L75.3854927,63.0033366 L73.0841268,35.6187512 L63.6617854,35.6187512 L49.7271512,63.0033366 L57.3319317,63.0033366 Z"/>
            <path d="M85.1009268,39.3442244 C84.2808293,40.6481268 83.8734146,42.1206146 83.8734146,43.7555415 C83.8734146,45.2183707 84.204439,46.5609073 84.8656098,47.7831512 C85.5276585,49.0062732 86.5874634,50.2048098 88.0502927,51.3805171 C89.2488293,52.3771024 89.9872683,53.0251024 90.2603415,53.3174927 C90.5334146,53.6142732 90.7494146,53.9066634 90.8986829,54.1990537 C91.0470732,54.4914439 91.1234634,54.8084195 91.1234634,55.1438341 C91.1234634,55.8585659 90.8881463,56.4047122 90.414,56.7936878 C89.9337073,57.1817854 89.2382927,57.374078 88.3137073,57.374078 C87.210878,57.374078 85.9877561,57.1484195 84.6302927,56.6971024 C83.2737073,56.2466634 82.0751707,55.6908585 81.0250244,55.0288098 L81.0250244,61.584322 C81.9118537,62.1691024 82.9663902,62.6142732 84.1895122,62.9215902 C85.4117561,63.2289073 86.706878,63.3816878 88.0827805,63.3816878 C91.367561,63.3816878 93.9279512,62.6142732 95.7648293,61.0706634 C97.6017073,59.5270537 98.5175122,57.3688098 98.5175122,54.5976878 C98.5175122,53.0488098 98.171561,51.667639 97.4577073,50.4682244 C96.7429756,49.2696878 95.6498049,48.1282244 94.1773171,47.040322 C93.0033659,46.1526146 92.2069756,45.4484195 91.7899024,44.916322 C91.3728293,44.3886146 91.1620976,43.8178829 91.1620976,43.2041268 C91.1620976,42.5324195 91.3772195,42.019639 91.8092195,41.6701756 C92.2403415,41.3242244 92.8549756,41.1468585 93.6557561,41.1468585 C95.1563415,41.1468585 96.9730244,41.6982732 99.107561,42.7967122 L101.634585,37.2342732 C99.2462927,35.8970049 96.5612195,35.2296878 93.5784878,35.2296878 C91.727561,35.2296878 90.0592683,35.5896878 88.5683415,36.3088098 C87.0721463,37.0279317 85.9210244,38.040322 85.1009268,39.3442244"/>
            <polygon points="115.280868 63.0030732 119.729941 41.67 125.685746 41.67 127.014234 35.6184878 107.757746 35.6184878 106.462624 41.67 112.399112 41.67 107.95882 63.0030732"/>
        </g>
    </g>
<def><style type="text/css">        #color-1 {
            fill: #4383c4 !important;
        }
        #color-2 {
            fill: #9D9D9D !important;
        }
        #color-3 {
            fill: #281010 !important;
        }</style></def></svg>
