<?xml version="1.0" encoding="UTF-8"?>
<svg xmlns="http://www.w3.org/2000/svg" xmlns:xlink="http://www.w3.org/1999/xlink" width="210px" height="210px" viewBox="0 0 210 210" version="1.1">
    <!-- Generator: Sketch 53.2 (72643) - https://sketchapp.com -->
    <title>24-7 Support</title>
    <desc>Created with Sketch.</desc>
    <g id="24-7-Support" stroke="none" stroke-width="1">
        <g id="color-1" transform="translate(13.000000, 13.000000)">
            <polygon points="88.7436548 11.4568528 92.4060914 8.73350254 96.1624365 11.4568528 94.7538071 7.13705584 98.4162437 4.41370558 93.8147208 4.41370558 92.4060914 0.0939086294 90.9974619 4.41370558 86.4898477 4.41370558 90.1522843 7.13705584"/>
            <polygon points="96.1624365 173.35533 92.4060914 175.984772 88.7436548 173.35533 90.1522843 177.675127 86.4898477 180.398477 90.9974619 180.398477 92.4060914 184.718274 93.8147208 180.398477 98.4162437 180.398477 94.7538071 177.675127"/>
            <polygon points="177.769036 94.6598985 180.398477 98.4162437 180.398477 93.8147208 184.718274 92.4060914 180.398477 90.9974619 180.398477 86.3959391 177.769036 90.1522843 173.35533 88.7436548 176.07868 92.4060914 173.35533 96.0685279"/>
            <polygon points="4.50761421 98.4162437 7.13705584 94.6598985 11.5507614 96.0685279 8.82741117 92.4060914 11.5507614 88.7436548 7.13705584 90.1522843 4.50761421 86.3959391 4.50761421 90.9974619 0.0939086294 92.4060914 4.50761421 93.8147208"/>
            <polygon points="151.568528 33.2436548 152.319797 37.751269 154.385787 33.713198 158.893401 34.464467 155.606599 31.177665 157.766497 27.1395939 153.634518 29.2055838 150.441624 26.0126904 151.098985 30.5203046 147.060914 32.5862944"/>
            <polygon points="33.3375635 151.568528 32.5862944 147.060914 30.5203046 151.098985 26.0126904 150.347716 29.2055838 153.634518 27.1395939 157.672589 31.2715736 155.606599 34.464467 158.799492 33.713198 154.291878 37.8451777 152.225888"/>
            <polygon points="154.385787 151.098985 152.319797 147.060914 151.568528 151.568528 147.060914 152.225888 151.098985 154.291878 150.441624 158.799492 153.634518 155.606599 157.766497 157.672589 155.606599 153.634518 158.893401 150.347716"/>
            <polygon points="30.5203046 33.713198 32.5862944 37.751269 33.3375635 33.2436548 37.8451777 32.5862944 33.713198 30.5203046 34.464467 25.9187817 31.2715736 29.2055838 27.1395939 27.1395939 29.2055838 31.177665 26.0126904 34.464467"/>
            <polygon points="57.6598985 14.4619289 58.035533 19.0634518 60.4771574 15.1192893 64.8908629 16.2461929 61.8857868 12.7715736 64.3274112 8.82741117 60.1015228 10.6116751 57.0964467 7.13705584 57.4720812 11.6446701 53.2461929 13.428934"/>
            <polygon points="127.152284 170.350254 126.870558 165.748731 124.428934 169.692893 120.015228 168.56599 122.926396 172.040609 120.57868 175.984772 124.804569 174.200508 127.809645 177.675127 127.43401 173.167513 131.659898 171.383249"/>
            <polygon points="169.692893 60.3832487 168.659898 64.7969543 172.134518 61.8857868 175.984772 64.2335025 174.294416 60.0076142 177.769036 57.0964467 173.167513 57.4720812 171.477157 53.2461929 170.350254 57.6598985 165.84264 58.035533"/>
            <polygon points="15.213198 124.428934 16.2461929 119.92132 12.7715736 122.926396 8.9213198 120.57868 10.6116751 124.71066 7.13705584 127.715736 11.7385787 127.340102 13.428934 131.56599 14.5558376 127.152284 19.0634518 126.77665"/>
            <polygon points="124.428934 15.1192893 126.870558 19.0634518 127.152284 14.4619289 131.659898 13.428934 127.43401 11.6446701 127.809645 7.13705584 124.804569 10.6116751 120.57868 8.82741117 122.926396 12.7715736 120.015228 16.2461929"/>
            <polygon points="60.4771574 169.692893 58.035533 165.748731 57.6598985 170.350254 53.2461929 171.383249 57.4720812 173.167513 57.0964467 177.675127 60.1015228 174.200508 64.3274112 175.984772 61.8857868 172.040609 64.8908629 168.56599"/>
            <polygon points="175.984772 120.57868 172.134518 122.926396 168.659898 119.92132 169.692893 124.428934 165.84264 126.77665 170.350254 127.152284 171.477157 131.56599 173.167513 127.340102 177.769036 127.715736 174.294416 124.71066"/>
            <polygon points="8.9213198 64.2335025 12.7715736 61.8857868 16.2461929 64.7969543 15.213198 60.3832487 19.0634518 58.035533 14.5558376 57.6598985 13.428934 53.2461929 11.7385787 57.4720812 7.13705584 57.0964467 10.6116751 60.0076142"/>
            <polygon points="73.0609137 13.7106599 76.1598985 10.4238579 80.2918782 12.3020305 78.0380711 8.26395939 81.1370558 4.97715736 76.6294416 5.82233503 74.4695431 1.87817259 73.9060914 6.3857868 69.3984772 7.3248731 73.5304569 9.20304569"/>
            <polygon points="111.845178 171.101523 108.746193 174.388325 104.614213 172.510152 106.86802 176.454315 103.769036 179.835025 108.182741 178.989848 110.436548 182.93401 111 178.426396 115.507614 177.48731 111.281726 175.609137"/>
            <polygon points="175.609137 73.5304569 171.101523 72.9670051 174.482234 76.0659898 172.510152 80.1979695 176.548223 78.0380711 179.928934 81.1370558 178.989848 76.6294416 183.027919 74.3756345 178.426396 73.8121827 177.581218 69.3984772"/>
            <polygon points="9.20304569 111.281726 13.8045685 111.845178 10.4238579 108.746193 12.3020305 104.520305 8.35786802 106.774112 4.97715736 103.675127 5.91624365 108.182741 1.87817259 110.436548 6.47969543 110.906091 7.3248731 115.413706"/>
            <polygon points="138.890863 22.819797 140.48731 27.1395939 141.708122 22.7258883 146.309645 22.5380711 142.459391 20.0025381 143.774112 15.6827411 140.111675 18.5 136.35533 15.964467 137.951777 20.1903553 134.383249 23.0076142"/>
            <polygon points="46.0152284 161.898477 44.4187817 157.672589 43.1979695 161.992386 38.5964467 162.180203 42.3527919 164.715736 41.1319797 169.129442 44.7005076 166.312183 48.5507614 168.847716 46.9543147 164.621827 50.5228426 161.71066"/>
            <polygon points="168.941624 136.261421 164.621827 137.857868 161.804569 134.28934 161.992386 138.890863 157.672589 140.393401 162.086294 141.708122 162.274112 146.215736 164.809645 142.459391 169.22335 143.680203 166.406091 140.111675"/>
            <polygon points="15.964467 48.4568528 20.284264 46.9543147 23.1015228 50.5228426 22.9137056 45.9213198 27.2335025 44.3248731 22.819797 43.1040609 22.6319797 38.5964467 20.0964467 42.3527919 15.6827411 41.1319797 18.5 44.7005076"/>
            <polygon points="43.1979695 22.7258883 44.4187817 27.1395939 46.0152284 22.819797 50.5228426 23.0076142 46.9543147 20.1903553 48.5507614 15.964467 44.7005076 18.5 41.1319797 15.6827411 42.3527919 20.0025381 38.5964467 22.5380711"/>
            <polygon points="141.708122 161.992386 140.48731 157.672589 138.890863 161.898477 134.383249 161.71066 137.951777 164.621827 136.35533 168.847716 140.111675 166.312183 143.774112 169.129442 142.459391 164.715736 146.309645 162.180203"/>
            <polygon points="161.992386 45.9213198 161.804569 50.5228426 164.621827 46.9543147 168.941624 48.4568528 166.406091 44.7005076 169.22335 41.1319797 164.809645 42.3527919 162.274112 38.5964467 162.086294 43.1040609 157.672589 44.3248731"/>
            <polygon points="22.9137056 138.890863 23.1015228 134.28934 20.284264 137.857868 15.964467 136.261421 18.5 140.111675 15.6827411 143.680203 20.0964467 142.459391 22.6319797 146.215736 22.819797 141.708122 27.2335025 140.393401"/>
            <polygon points="104.614213 12.3020305 108.746193 10.4238579 111.845178 13.7106599 111.281726 9.20304569 115.507614 7.3248731 111 6.3857868 110.436548 1.87817259 108.182741 5.82233503 103.769036 4.97715736 106.86802 8.26395939"/>
            <polygon points="80.2918782 172.510152 76.1598985 174.388325 73.0609137 171.101523 73.5304569 175.609137 69.3984772 177.48731 73.9060914 178.426396 74.4695431 182.93401 76.6294416 178.989848 81.1370558 179.835025 78.0380711 176.454315"/>
            <polygon points="179.928934 103.675127 176.548223 106.774112 172.604061 104.520305 174.482234 108.746193 171.101523 111.845178 175.609137 111.281726 177.581218 115.413706 178.426396 110.906091 183.027919 110.436548 178.989848 108.182741"/>
            <polygon points="4.97715736 81.1370558 8.35786802 78.0380711 12.3020305 80.1979695 10.4238579 76.0659898 13.8045685 72.9670051 9.20304569 73.5304569 7.3248731 69.3984772 6.47969543 73.8121827 1.87817259 74.3756345 5.91624365 76.6294416"/>
            <path d="M92.4060914,14.8375635 C49.5837563,14.8375635 14.8375635,49.5837563 14.8375635,92.4060914 C14.8375635,135.228426 49.5837563,169.974619 92.4060914,169.974619 C135.228426,169.974619 169.974619,135.228426 169.974619,92.4060914 C170.068528,49.5837563 135.322335,14.8375635 92.4060914,14.8375635 Z M92.4060914,163.119289 C61.5101523,163.119289 35.215736,143.21066 25.5431472,115.601523 L159.175127,115.601523 C149.596447,143.304569 123.30203,163.119289 92.4060914,163.119289 Z M92.4060914,21.5989848 C123.30203,21.5989848 149.596447,41.5076142 159.269036,69.1167513 L25.6370558,69.1167513 C35.215736,41.5076142 61.6040609,21.5989848 92.4060914,21.5989848 Z M115.695431,84.5177665 L117.19797,77.6624365 L138.890863,77.6624365 L137.857868,82.5456853 L122.175127,108.464467 L112.784264,108.464467 L112.784264,108.464467 L112.784264,108.464467 L112.784264,108.464467 L127.903553,84.6116751 L115.695431,84.6116751 L115.695431,84.5177665 Z M111.375635,77.6624365 L99.9187817,108.370558 L97.7588832,108.370558 L109.215736,77.6624365 L111.375635,77.6624365 Z M95.8807107,96.2563452 L94.5659898,102.454315 L91.3730964,102.454315 L90.1522843,108.370558 L82.2639594,108.370558 L83.4847716,102.454315 L71.9340102,102.454315 L72.9670051,97.1015228 L89.0253807,77.6624365 L96.6319797,77.6624365 L92.6878173,96.2563452 L95.8807107,96.2563452 L95.8807107,96.2563452 Z M68.6472081,101.609137 L67.2385787,108.464467 L46.0152284,108.464467 L47.142132,103.111675 L57.284264,93.9086294 C60.7588832,90.8096447 62.5431472,88.2741117 62.5431472,86.3020305 C62.5431472,85.6446701 62.3553299,85.0812183 61.9796954,84.7994924 C61.6040609,84.4238579 61.1345178,84.3299492 60.571066,84.3299492 C58.8807107,84.3299492 56.9086294,85.3629442 54.6548223,87.428934 L50.7106599,81.9822335 C53.9974619,78.8832487 57.7538071,77.3807107 62.0736041,77.3807107 C64.6091371,77.3807107 66.6751269,78.0380711 68.2715736,79.4467005 C69.8680203,80.8553299 70.6192893,82.7335025 70.6192893,85.0812183 C70.6192893,87.2411168 69.9619289,89.213198 68.8350254,91.0913706 C67.6142132,92.9695431 65.5482234,95.1294416 62.5431472,97.7588832 L58.2233503,101.42132 L58.2233503,101.703046 L68.6472081,101.703046 L68.6472081,101.609137 Z"/>
            <path d="M84.5177665,91.3730964 L80.3857868,96.2563452 L84.7994924,96.2563452 L84.7994924,96.2563452 L85.8324873,92.2182741 C86.2081218,90.715736 86.677665,89.213198 87.0532995,87.8045685 L86.8654822,87.8045685 C86.2081218,89.1192893 85.4568528,90.3401015 84.5177665,91.3730964 Z"/>
            <path d="M40.5685279,62.3553299 C41.6954315,63.6700508 43.2918782,64.3274112 45.4517766,64.3274112 C46.9543147,64.3274112 48.2690355,64.0456853 49.4898477,63.5761421 L49.4898477,60.9467005 C47.9873096,61.4162437 46.7664975,61.6979695 45.7335025,61.6979695 C43.2918782,61.6979695 42.071066,60.1015228 42.071066,56.8147208 C42.071066,55.2182741 42.3527919,53.9974619 43.0101523,53.1522843 C43.6675127,52.3071066 44.5126904,51.8375635 45.7335025,51.8375635 C46.2969543,51.8375635 46.8604061,51.9314721 47.3299492,52.1192893 C47.893401,52.3071066 48.4568528,52.4949239 49.0203046,52.7766497 L50.0532995,50.2411168 C48.6446701,49.5837563 47.142132,49.2081218 45.7335025,49.2081218 C44.3248731,49.2081218 43.1040609,49.4898477 42.071066,50.1472081 C41.0380711,50.7106599 40.1928934,51.6497462 39.7233503,52.7766497 C39.1598985,53.9035533 38.8781726,55.2182741 38.8781726,56.8147208 C38.8781726,59.1624365 39.4416244,61.0406091 40.5685279,62.3553299 Z"/>
            <path d="M64.0456853,49.3959391 L64.0456853,49.3959391"/>
            <path d="M58.035533,64.3274112 C59.2563452,64.3274112 60.3832487,64.1395939 61.322335,63.6700508 C62.2614213,63.2005076 62.9187817,62.6370558 63.3883249,61.7918782 C63.857868,60.9467005 64.1395939,60.0076142 64.1395939,58.9746193 L64.1395939,49.4898477 L61.0406091,49.4898477 L61.0406091,58.4111675 C61.0406091,59.5380711 60.8527919,60.3832487 60.3832487,60.9467005 C59.9137056,61.5101523 59.1624365,61.6979695 58.1294416,61.6979695 C57.0964467,61.6979695 56.3451777,61.4162437 55.8756345,60.9467005 C55.4060914,60.3832487 55.2182741,59.6319797 55.2182741,58.5050761 L55.2182741,49.5837563 L52.1192893,49.5837563 L52.1192893,58.9746193 C52.1192893,60.6649746 52.6827411,61.9796954 53.715736,62.9187817 C54.6548223,63.7639594 56.1573604,64.3274112 58.035533,64.3274112 Z"/>
            <path d="M74.4695431,63.106599 C75.4086294,62.3553299 75.8781726,61.322335 75.8781726,60.0076142 C75.8781726,59.0685279 75.5964467,58.2233503 75.1269036,57.5659898 C74.6573604,56.9086294 73.7182741,56.251269 72.3096447,55.5939086 C71.2766497,55.1243655 70.6192893,54.748731 70.3375635,54.5609137 C70.0558376,54.3730964 69.8680203,54.1852792 69.7741117,53.9974619 C69.680203,53.8096447 69.5862944,53.5279188 69.5862944,53.2461929 C69.5862944,52.7766497 69.7741117,52.4010152 70.0558376,52.213198 C70.3375635,51.9314721 70.8071066,51.8375635 71.3705584,51.8375635 C71.8401015,51.8375635 72.4035533,51.9314721 72.8730964,52.0253807 C73.3426396,52.1192893 74,52.4010152 74.8451777,52.6827411 L75.8781726,50.2411168 C75.1269036,49.9593909 74.3756345,49.677665 73.7182741,49.4898477 C73.0609137,49.3020305 72.3096447,49.2081218 71.5583756,49.2081218 C70.0558376,49.2081218 68.8350254,49.5837563 67.8959391,50.3350254 C67.0507614,51.0862944 66.5812183,52.1192893 66.5812183,53.4340102 C66.5812183,54.0913706 66.6751269,54.748731 66.9568528,55.2182741 C67.2385787,55.7817259 67.6142132,56.1573604 67.9898477,56.5329949 C68.4593909,56.9086294 69.1167513,57.284264 69.9619289,57.7538071 C70.9010152,58.2233503 71.5583756,58.5050761 71.8401015,58.786802 C72.1218274,58.9746193 72.4035533,59.1624365 72.5913706,59.4441624 C72.7791878,59.6319797 72.8730964,59.9137056 72.8730964,60.1954315 C72.8730964,60.7588832 72.6852792,61.1345178 72.3096447,61.322335 C71.9340102,61.6040609 71.464467,61.6979695 70.713198,61.6979695 C70.1497462,61.6979695 69.4923858,61.6040609 68.8350254,61.4162437 C68.177665,61.2284264 67.3324873,60.9467005 66.2994924,60.4771574 L66.2994924,63.3883249 C67.5203046,63.9517766 68.928934,64.2335025 70.4314721,64.2335025 C72.215736,64.3274112 73.5304569,63.857868 74.4695431,63.106599 Z"/>
            <polygon points="80.6675127 64.0456853 83.7664975 64.0456853 83.7664975 64.0456853 83.7664975 52.0253807 87.8045685 52.0253807 87.8045685 49.3959391 76.7233503 49.3959391 76.7233503 52.0253807 80.6675127 52.0253807"/>
            <path d="M95.9746193,64.3274112 C98.2284264,64.3274112 99.9187817,63.6700508 101.139594,62.3553299 C102.360406,61.0406091 102.923858,59.1624365 102.923858,56.7208122 C102.923858,54.2791878 102.360406,52.4010152 101.139594,51.0862944 C99.9187817,49.7715736 98.2284264,49.1142132 95.9746193,49.1142132 C93.7208122,49.1142132 92.0304569,49.7715736 90.8096447,51.0862944 C89.5888325,52.4010152 89.0253807,54.2791878 89.0253807,56.6269036 C89.0253807,59.0685279 89.5888325,60.9467005 90.8096447,62.2614213 C91.9365482,63.6700508 93.7208122,64.3274112 95.9746193,64.3274112 Z M93.1573604,53.0583756 C93.8147208,52.213198 94.7538071,51.8375635 95.9746193,51.8375635 C98.4162437,51.8375635 99.6370558,53.5279188 99.6370558,56.8147208 C99.6370558,60.1015228 98.4162437,61.7918782 95.8807107,61.7918782 C94.6598985,61.7918782 93.7208122,61.4162437 93.0634518,60.571066 C92.4060914,59.7258883 92.1243655,58.5050761 92.1243655,56.9086294 C92.1243655,55.3121827 92.5,53.9035533 93.1573604,53.0583756 Z"/>
            <path d="M108.27665,57.284264 C108.27665,56.5329949 108.182741,54.9365482 108.088832,52.5888325 L108.182741,52.5888325 L111.751269,64.0456853 L111.751269,64.0456853 L114.568528,64.0456853 L118.324873,52.5888325 L118.418782,52.5888325 C118.324873,54.4670051 118.324873,55.5939086 118.324873,55.9695431 C118.324873,56.4390863 118.324873,56.8147208 118.324873,57.0964467 L118.324873,64.0456853 L121.236041,64.0456853 L121.236041,49.3959391 L117.010152,49.3959391 L113.347716,60.571066 L113.253807,60.571066 L109.779188,49.3959391 L105.553299,49.3959391 L105.553299,64.0456853 L108.370558,64.0456853 L108.27665,57.284264 L108.27665,57.284264 Z"/>
            <polygon points="132.880711 61.5101523 127.527919 61.5101523 127.527919 57.7538071 132.505076 57.7538071 132.505076 55.2182741 127.527919 55.2182741 127.527919 52.0253807 132.880711 52.0253807 132.880711 49.3959391 124.428934 49.3959391 124.428934 64.0456853 132.880711 64.0456853"/>
            <path d="M138.609137,58.5050761 L140.299492,58.5050761 L143.774112,64.1395939 L147.248731,64.1395939 C146.591371,63.2005076 145.182741,61.0406091 142.928934,57.7538071 C143.774112,57.3781726 144.431472,56.8147208 144.901015,56.1573604 C145.370558,55.5 145.652284,54.748731 145.652284,53.9035533 C145.652284,52.4010152 145.182741,51.3680203 144.243655,50.6167513 C143.304569,49.8654822 141.80203,49.4898477 139.829949,49.4898477 L135.604061,49.4898477 L135.604061,64.1395939 L138.703046,64.1395939 L138.609137,58.5050761 L138.609137,58.5050761 Z M138.609137,52.0253807 L139.548223,52.0253807 C140.581218,52.0253807 141.332487,52.213198 141.80203,52.4949239 C142.271574,52.7766497 142.553299,53.2461929 142.553299,53.9974619 C142.553299,54.6548223 142.271574,55.2182741 141.895939,55.5 C141.520305,55.7817259 140.675127,55.9695431 139.736041,55.9695431 L138.703046,55.9695431 L138.703046,55.9695431 L138.703046,52.0253807 L138.609137,52.0253807 Z"/>
            <path d="M53.4340102,127.058376 C52.4010152,126.588832 51.7436548,126.213198 51.4619289,126.025381 C51.180203,125.837563 50.9923858,125.649746 50.8984772,125.461929 C50.8045685,125.274112 50.7106599,124.992386 50.7106599,124.71066 C50.7106599,124.241117 50.8984772,123.865482 51.180203,123.677665 C51.4619289,123.395939 51.9314721,123.30203 52.4949239,123.30203 C52.964467,123.30203 53.5279188,123.395939 53.9974619,123.489848 C54.4670051,123.583756 55.1243655,123.865482 55.9695431,124.147208 L57.0025381,121.705584 C56.251269,121.423858 55.5,121.142132 54.8426396,120.954315 C54.1852792,120.766497 53.4340102,120.672589 52.6827411,120.672589 C51.180203,120.672589 49.9593909,121.048223 49.0203046,121.799492 C48.1751269,122.550761 47.7055838,123.583756 47.7055838,124.898477 C47.7055838,125.555838 47.7994924,126.213198 48.0812183,126.682741 C48.3629442,127.246193 48.7385787,127.621827 49.1142132,127.997462 C49.4898477,128.373096 50.2411168,128.748731 51.0862944,129.218274 C52.0253807,129.687817 52.6827411,129.969543 52.964467,130.251269 C53.2461929,130.439086 53.5279188,130.720812 53.715736,130.908629 C53.9035533,131.096447 53.9974619,131.378173 53.9974619,131.659898 C53.9974619,132.22335 53.8096447,132.598985 53.4340102,132.786802 C53.0583756,133.068528 52.5888325,133.162437 51.8375635,133.162437 C51.2741117,133.162437 50.6167513,133.068528 49.9593909,132.880711 C49.3020305,132.692893 48.4568528,132.411168 47.4238579,131.941624 L47.4238579,134.852792 C48.6446701,135.416244 50.0532995,135.69797 51.5558376,135.69797 C53.2461929,135.69797 54.5609137,135.322335 55.5,134.571066 C56.4390863,133.819797 56.9086294,132.786802 56.9086294,131.472081 C56.9086294,130.532995 56.6269036,129.687817 56.1573604,129.030457 C55.7817259,128.373096 54.8426396,127.715736 53.4340102,127.058376 Z"/>
            <path d="M71.1827411,120.860406 L71.1827411,120.860406"/>
            <path d="M68.0837563,129.781726 C68.0837563,130.908629 67.8959391,131.753807 67.4263959,132.317259 C66.9568528,132.880711 66.2055838,133.068528 65.1725888,133.068528 C64.1395939,133.068528 63.3883249,132.786802 62.9187817,132.317259 C62.4492386,131.847716 62.2614213,131.002538 62.2614213,129.875635 L62.2614213,120.954315 L59.1624365,120.954315 L59.1624365,130.345178 C59.1624365,132.035533 59.7258883,133.350254 60.7588832,134.28934 C61.7918782,135.228426 63.2944162,135.69797 65.1725888,135.69797 C66.393401,135.69797 67.5203046,135.510152 68.4593909,135.040609 C69.3984772,134.571066 70.0558376,134.007614 70.5253807,133.162437 C70.9949239,132.317259 71.2766497,131.378173 71.2766497,130.345178 L71.2766497,120.860406 L68.177665,120.860406 L68.177665,129.781726 L68.0837563,129.781726 Z"/>
            <path d="M83.1091371,121.98731 C82.1700508,121.236041 80.8553299,120.860406 79.071066,120.860406 L74.3756345,120.860406 L74.3756345,135.510152 L77.4746193,135.510152 L77.4746193,130.345178 L78.7893401,130.345178 C80.5736041,130.345178 81.9822335,129.969543 83.0152284,129.124365 C84.0482234,128.279188 84.5177665,127.058376 84.5177665,125.461929 C84.4238579,123.959391 83.9543147,122.832487 83.1091371,121.98731 Z M80.5736041,127.246193 C80.1040609,127.621827 79.3527919,127.809645 78.4137056,127.809645 L77.3807107,127.809645 L77.3807107,123.489848 L78.7893401,123.489848 C79.6345178,123.489848 80.2918782,123.677665 80.6675127,124.053299 C81.0431472,124.428934 81.2309645,124.898477 81.2309645,125.649746 C81.3248731,126.307107 81.1370558,126.870558 80.5736041,127.246193 Z"/>
            <path d="M95.5050761,121.98731 C94.5659898,121.236041 93.251269,120.860406 91.4670051,120.860406 L86.7715736,120.860406 L86.7715736,135.510152 L89.8705584,135.510152 L89.8705584,130.345178 L91.1852792,130.345178 C92.9695431,130.345178 94.3781726,129.969543 95.4111675,129.124365 C96.3502538,128.279188 96.9137056,127.058376 96.9137056,125.461929 C96.9137056,123.959391 96.4441624,122.832487 95.5050761,121.98731 Z M93.0634518,127.246193 C92.5939086,127.621827 91.8426396,127.809645 90.9035533,127.809645 L89.8705584,127.809645 L89.8705584,123.489848 L91.2791878,123.489848 C92.1243655,123.489848 92.7817259,123.677665 93.1573604,124.053299 C93.5329949,124.428934 93.7208122,124.898477 93.7208122,125.649746 C93.8147208,126.307107 93.5329949,126.870558 93.0634518,127.246193 Z"/>
            <path d="M105.647208,120.672589 C103.393401,120.672589 101.703046,121.329949 100.482234,122.64467 C99.2614213,123.959391 98.6979695,125.743655 98.6979695,128.185279 C98.6979695,130.626904 99.2614213,132.505076 100.482234,133.819797 C101.703046,135.134518 103.393401,135.791878 105.647208,135.791878 C107.901015,135.791878 109.591371,135.134518 110.812183,133.819797 C112.032995,132.505076 112.596447,130.626904 112.596447,128.185279 C112.596447,125.743655 112.032995,123.865482 110.812183,122.550761 C109.591371,121.236041 107.901015,120.672589 105.647208,120.672589 Z M105.647208,133.068528 C104.426396,133.068528 103.48731,132.692893 102.829949,131.847716 C102.172589,131.002538 101.890863,129.781726 101.890863,128.185279 C101.890863,126.588832 102.172589,125.274112 102.829949,124.522843 C103.48731,123.771574 104.426396,123.30203 105.647208,123.30203 C108.088832,123.30203 109.309645,124.992386 109.309645,128.279188 C109.309645,131.472081 108.088832,133.068528 105.647208,133.068528 Z"/>
            <path d="M124.616751,127.527919 C125.086294,126.870558 125.36802,126.119289 125.36802,125.274112 C125.36802,123.771574 124.898477,122.738579 123.959391,121.98731 C123.020305,121.236041 121.517766,120.860406 119.545685,120.860406 L115.319797,120.860406 L115.319797,135.510152 L118.418782,135.510152 L118.418782,129.875635 L120.109137,129.875635 L123.583756,135.510152 L127.058376,135.510152 C126.401015,134.571066 124.992386,132.411168 122.738579,129.124365 C123.489848,128.748731 124.147208,128.279188 124.616751,127.527919 Z M121.517766,126.870558 C121.048223,127.152284 120.296954,127.340102 119.357868,127.340102 L118.324873,127.340102 L118.324873,127.340102 L118.324873,123.395939 L119.263959,123.395939 C120.296954,123.395939 121.048223,123.583756 121.517766,123.865482 C121.98731,124.147208 122.269036,124.616751 122.269036,125.36802 C122.175127,126.025381 121.98731,126.588832 121.517766,126.870558 Z"/>
            <polygon points="126.870558 123.489848 130.908629 123.489848 130.908629 135.510152 134.007614 135.510152 134.007614 135.510152 134.007614 123.489848 137.951777 123.489848 137.951777 120.860406 126.870558 120.860406"/>
        </g>
    </g>
<def><style type="text/css">        #color-1 {
            fill: #4383c4 !important;
        }
        #color-2 {
            fill: #9D9D9D !important;
        }
        #color-3 {
            fill: #281010 !important;
        }</style></def></svg>
