<?xml version="1.0" encoding="UTF-8"?>
<svg xmlns="http://www.w3.org/2000/svg" xmlns:xlink="http://www.w3.org/1999/xlink" width="210px" height="210px" viewBox="0 0 210 210" version="1.1">
    <!-- Generator: Sketch 53.2 (72643) - https://sketchapp.com -->
    <title>Easy Returns</title>
    <desc>Created with Sketch.</desc>
    <g id="Easy-Returns" stroke="none" stroke-width="1">
        <g id="color-1" transform="translate(28.000000, 15.000000)">
            <path d="M150.234146,70.4195122 C150.058537,69.102439 149.882927,67.697561 149.707317,66.3804878 L149.619512,65.8536585 C149.180488,62.4292683 148.126829,53.6487805 147.863415,50.5756098 C146.897561,39.6 150.058537,25.4634146 152.078049,17.9121951 L153.219512,13.5219512 L148.917073,12.1170732 C145.931707,11.1512195 142.682927,10.1853659 139.346341,9.30731707 C126.614634,5.88292683 112.653659,3.51219512 96.497561,2.0195122 C88.4195122,1.22926829 82.0097561,0.87804878 76.302439,0.790243902 L76.2146341,0.790243902 L76.1268293,0.790243902 C70.3317073,0.87804878 64.0097561,1.22926829 55.6682927,2.10731707 C39.5121951,3.68780488 24.9365854,6.32195122 12.2926829,9.92195122 C9.74634146,10.6243902 7.37560976,11.3268293 5.09268293,12.1170732 L0.790243902,13.5219512 L1.93170732,17.9121951 C3.95121951,25.3756098 7.11219512,39.6 6.14634146,50.5756098 C5.88292683,53.7365854 4.74146341,62.4292683 4.3902439,65.8536585 L4.30243902,66.3804878 C4.12682927,67.697561 3.95121951,69.0146341 3.77560976,70.3317073 C1.14146341,90 -1.93170732,112.214634 2.37073171,130.302439 C7.2,150.936585 17.7365854,161.736585 37.4926829,166.390244 C38.8097561,166.741463 40.2146341,167.004878 41.7073171,167.356098 C52.5073171,169.814634 65.9414634,172.887805 74.4585366,178.243902 L77.004878,179.82439 L79.5512195,178.243902 C88.1560976,172.887805 101.590244,169.814634 112.390244,167.356098 C113.795122,167.004878 115.2,166.741463 116.517073,166.390244 C136.273171,161.736585 146.721951,150.936585 151.639024,130.302439 C155.941463,112.302439 152.868293,90.0878049 150.234146,70.4195122 Z M148.390244,129.6 C143.82439,149.092683 134.341463,158.839024 115.814634,163.141463 C114.497561,163.404878 113.092683,163.756098 111.687805,164.107317 C100.62439,166.653659 86.9268293,169.726829 77.795122,175.434146 L77.004878,175.873171 L76.2146341,175.434146 C67.1707317,169.814634 53.4731707,166.653659 42.4097561,164.107317 C41.004878,163.756098 39.6,163.492683 38.195122,163.141463 C19.6682927,158.75122 10.1853659,149.092683 5.6195122,129.6 C1.49268293,112.126829 4.47804878,90.1756098 7.11219512,70.8585366 C7.28780488,69.5414634 7.46341463,68.2243902 7.63902439,66.9073171 L7.72682927,66.3804878 C8.16585366,62.9560976 9.2195122,54.1756098 9.48292683,50.9268293 C10.5365854,39.4243902 7.2,24.8487805 5.1804878,17.1219512 L4.82926829,15.804878 L6.14634146,15.3658537 C8.42926829,14.5756098 10.7121951,13.8731707 13.1707317,13.1707317 C25.6390244,9.65853659 40.0390244,7.02439024 55.9317073,5.53170732 C64.2731707,4.74146341 70.5073171,4.30243902 76.1268293,4.21463415 C81.7463415,4.30243902 88.0682927,4.65365854 96.0585366,5.44390244 C112.039024,6.93658537 125.82439,9.30731707 138.380488,12.6439024 C141.629268,13.5219512 144.790244,14.4878049 147.687805,15.4536585 L149.004878,15.8926829 L148.653659,17.2097561 C146.634146,24.9365854 143.297561,39.5121951 144.35122,51.0146341 C144.614634,54.1756098 145.756098,63.2195122 146.195122,66.5560976 L146.282927,66.995122 C146.458537,68.3121951 146.634146,69.7170732 146.809756,71.0341463 C149.531707,90.1756098 152.517073,112.126829 148.390244,129.6 Z"/>
            <path d="M33.1902439,81.395122 C32.6634146,80.9560976 31.7853659,80.6926829 30.5560976,80.6926829 L29.4146341,80.6926829 L29.4146341,86.7512195 L29.4146341,86.7512195 L30.6439024,86.7512195 C31.7853659,86.7512195 32.6634146,86.4878049 33.1902439,85.9609756 C33.7170732,85.4341463 34.0682927,84.6439024 34.0682927,83.5902439 C34.0682927,82.6243902 33.7170732,81.8341463 33.1902439,81.395122 Z"/>
            <path d="M56.3707317,140.57561 C54.8780488,140.57561 53.6487805,141.804878 53.6487805,143.297561 C53.6487805,144.790244 54.8780488,146.019512 56.3707317,146.019512 C57.8634146,146.019512 59.0926829,144.790244 59.0926829,143.297561 C59.0926829,141.804878 57.8634146,140.57561 56.3707317,140.57561 Z"/>
            <path d="M95.6195122,81.395122 C95.0926829,80.9560976 94.2146341,80.6926829 92.9853659,80.6926829 L91.8439024,80.6926829 L91.8439024,86.7512195 L91.8439024,86.7512195 L93.0731707,86.7512195 C94.2146341,86.7512195 95.0926829,86.4878049 95.6195122,85.9609756 C96.1463415,85.4341463 96.497561,84.6439024 96.497561,83.5902439 C96.4097561,82.6243902 96.1463415,81.8341463 95.6195122,81.395122 Z"/>
            <path d="M95.004878,123.190244 L95.004878,141.804878 L96.6731707,141.804878 C97.3756098,139.346341 99.5707317,137.590244 102.204878,137.590244 C104.839024,137.590244 107.121951,139.346341 107.736585,141.804878 L109.756098,141.804878 L109.756098,132.321951 L101.765854,123.190244 L95.004878,123.190244 Z"/>
            <path d="M102.204878,140.57561 C100.712195,140.57561 99.4829268,141.804878 99.4829268,143.297561 C99.4829268,144.790244 100.712195,146.019512 102.204878,146.019512 C103.697561,146.019512 104.926829,144.790244 104.926829,143.297561 C104.926829,141.804878 103.697561,140.57561 102.204878,140.57561 Z"/>
            <path d="M44.4292683,141.804878 L50.8390244,141.804878 C51.5414634,139.346341 53.7365854,137.590244 56.3707317,137.590244 C59.004878,137.590244 61.2878049,139.346341 61.902439,141.804878 L91.9317073,141.804878 L91.9317073,115.463415 L44.3414634,115.463415 L44.3414634,141.804878 L44.4292683,141.804878 Z M64.9756098,121.873171 L75.6,121.873171 L73.5804878,119.853659 C72.9658537,119.239024 72.9658537,118.360976 73.5804878,117.746341 C74.195122,117.131707 75.0731707,117.131707 75.6878049,117.746341 L79.8146341,121.873171 C80.604878,122.663415 80.604878,123.980488 79.8146341,124.770732 L75.6878049,128.897561 C75.4243902,129.160976 74.9853659,129.336585 74.6341463,129.336585 C74.2829268,129.336585 73.8439024,129.160976 73.5804878,128.897561 C72.9658537,128.282927 72.9658537,127.404878 73.5804878,126.790244 L75.6,124.770732 L64.9756098,124.770732 C64.1853659,124.770732 63.4829268,124.068293 63.4829268,123.278049 C63.4829268,122.57561 64.1853659,121.873171 64.9756098,121.873171 Z M57.1609756,129.6 L61.2878049,125.473171 C61.902439,124.858537 62.7804878,124.858537 63.395122,125.473171 C64.0097561,126.087805 64.0097561,126.965854 63.395122,127.580488 L61.3756098,129.6 L72,129.6 C72.7902439,129.6 73.4926829,130.302439 73.4926829,131.092683 C73.4926829,131.882927 72.7902439,132.585366 72,132.585366 L61.3756098,132.585366 L63.395122,134.604878 C64.0097561,135.219512 64.0097561,136.097561 63.395122,136.712195 C63.1317073,136.97561 62.6926829,137.15122 62.3414634,137.15122 C61.9902439,137.15122 61.5512195,136.97561 61.2878049,136.712195 C61.2878049,136.712195 57.1609756,132.585366 57.1609756,132.585366 C56.8097561,132.234146 56.5463415,131.707317 56.5463415,131.092683 C56.5463415,130.478049 56.7219512,129.95122 57.1609756,129.6 Z"/>
            <path d="M145.580488,128.897561 C149.531707,111.95122 146.634146,90.3512195 144.087805,71.2097561 C144.087805,71.0341463 144.087805,70.8585366 144,70.6829268 L143.560976,67.0829268 L10.4487805,67.0829268 L9.83414634,72.2634146 L10.0097561,72.2634146 C7.46341463,91.0536585 4.74146341,112.214634 8.60487805,128.897561 C12.995122,147.42439 21.5121951,156.204878 39.0731707,160.331707 C40.3902439,160.682927 41.795122,160.946341 43.2,161.297561 C54.1756098,163.843902 67.697561,166.917073 77.0926829,172.44878 C86.5756098,166.829268 100.097561,163.756098 111.073171,161.209756 C112.478049,160.858537 113.882927,160.595122 115.2,160.243902 C132.673171,156.204878 141.278049,147.42439 145.580488,128.897561 Z M112.829268,143.297561 C112.829268,144.17561 112.126829,144.790244 111.336585,144.790244 L107.82439,144.790244 C107.121951,147.24878 104.926829,149.004878 102.292683,149.004878 C99.6585366,149.004878 97.3756098,147.24878 96.7609756,144.790244 L62.0780488,144.790244 C61.3756098,147.24878 59.1804878,149.004878 56.5463415,149.004878 C53.9121951,149.004878 51.6292683,147.24878 51.0146341,144.790244 L43.0243902,144.790244 C42.1463415,144.790244 41.5317073,144.087805 41.5317073,143.297561 L41.5317073,113.882927 C41.5317073,113.004878 42.2341463,112.390244 43.0243902,112.390244 L93.6878049,112.390244 C94.5658537,112.390244 95.1804878,113.092683 95.1804878,113.882927 L95.1804878,120.117073 L102.556098,120.117073 C102.995122,120.117073 103.434146,120.292683 103.697561,120.643902 L112.565854,130.741463 C112.829268,131.004878 112.917073,131.356098 112.917073,131.707317 L112.917073,143.297561 L112.829268,143.297561 Z M35.5609756,99.3073171 L31.4341463,90.702439 L29.502439,90.702439 L29.502439,99.3073171 L25.8146341,99.3073171 L25.8146341,76.8292683 L30.9073171,76.8292683 C33.2780488,76.8292683 35.0341463,77.3560976 36.1756098,78.497561 C37.3170732,79.6390244 37.8439024,81.3073171 37.8439024,83.5902439 C37.8439024,84.9073171 37.5804878,86.0487805 36.9658537,87.102439 C36.4390244,88.1560976 35.5609756,88.9463415 34.595122,89.5609756 C37.2292683,94.6536585 38.897561,97.902439 39.6878049,99.3073171 L35.5609756,99.3073171 Z M102.029268,99.3073171 L97.902439,99.3073171 L93.7756098,90.702439 L91.8439024,90.702439 L91.8439024,99.3073171 L88.1560976,99.3073171 L88.1560976,76.8292683 L93.2487805,76.8292683 C95.6195122,76.8292683 97.3756098,77.3560976 98.5170732,78.497561 C99.6585366,79.6390244 100.185366,81.3073171 100.185366,83.5902439 C100.185366,84.9073171 99.9219512,86.0487805 99.3073171,87.102439 C98.7804878,88.1560976 97.902439,88.9463415 96.9365854,89.5609756 C99.5707317,94.5658537 101.239024,97.8146341 102.029268,99.3073171 Z M74.0195122,94.3902439 C74.5463415,95.1804878 75.4243902,95.6195122 76.7414634,95.6195122 C77.9707317,95.6195122 78.8487805,95.1804878 79.3756098,94.3902439 C79.902439,93.6 80.1658537,92.2829268 80.1658537,90.5268293 L80.1658537,76.8292683 L83.8536585,76.8292683 L83.8536585,76.8292683 L83.8536585,91.404878 C83.8536585,93.0731707 83.5902439,94.4780488 82.9756098,95.795122 C82.3609756,97.1121951 81.5707317,97.9902439 80.5170732,98.6926829 C79.4634146,99.395122 78.1463415,99.6585366 76.6536585,99.6585366 C74.3707317,99.6585366 72.702439,98.9560976 71.4731707,97.4634146 C70.2439024,95.9707317 69.6292683,93.9512195 69.6292683,91.404878 L69.6292683,76.9170732 L73.3170732,76.9170732 L73.3170732,90.702439 C73.2292683,92.2829268 73.4926829,93.6 74.0195122,94.3902439 Z M53.8243902,80.7804878 L53.8243902,76.8292683 L66.995122,76.8292683 L66.995122,80.7804878 L62.2536585,80.7804878 L62.2536585,99.3073171 L58.5658537,99.3073171 L58.5658537,80.7804878 L53.8243902,80.7804878 L53.8243902,80.7804878 Z M51.4536585,85.697561 L51.4536585,89.5609756 L45.5707317,89.5609756 L45.5707317,95.3560976 L51.8926829,95.3560976 L51.8926829,99.3073171 L41.8829268,99.3073171 L41.8829268,76.8292683 L51.8926829,76.8292683 L51.8926829,80.6926829 L45.5707317,80.6926829 L45.5707317,85.6097561 L51.4536585,85.697561 L51.4536585,85.697561 Z M107.473171,82.2731707 L107.385366,82.2731707 C107.560976,85.2585366 107.64878,87.4536585 107.64878,88.6829268 L107.64878,99.2195122 L104.312195,99.2195122 L104.312195,76.7414634 L108.965854,76.7414634 L116.517073,93.6 L116.604878,93.6 C116.517073,90.702439 116.429268,88.595122 116.429268,87.3658537 L116.429268,76.7414634 L119.765854,76.7414634 L119.765854,99.2195122 L119.765854,99.2195122 L119.765854,99.2195122 L115.112195,99.2195122 L107.473171,82.2731707 Z M128.019512,99.5707317 C126.17561,99.5707317 124.507317,99.1317073 123.102439,98.2536585 L123.102439,93.8634146 C124.243902,94.5658537 125.297561,95.004878 126.087805,95.2682927 C126.878049,95.5317073 127.668293,95.7073171 128.282927,95.7073171 C129.073171,95.7073171 129.687805,95.5317073 130.126829,95.0926829 C130.565854,94.6536585 130.741463,94.1268293 130.741463,93.3365854 C130.741463,92.897561 130.653659,92.4585366 130.478049,92.195122 C130.302439,91.8439024 130.039024,91.4926829 129.6,91.2292683 C129.24878,90.8780488 128.458537,90.4390244 127.317073,89.7365854 C126.263415,89.1219512 125.473171,88.5073171 124.946341,87.8926829 C124.419512,87.2780488 123.980488,86.5756098 123.629268,85.7853659 C123.278049,84.995122 123.190244,84.1170732 123.190244,82.9756098 C123.190244,80.9560976 123.717073,79.4634146 124.770732,78.3219512 C125.82439,77.1804878 127.229268,76.6536585 129.073171,76.6536585 C129.95122,76.6536585 130.829268,76.8292683 131.707317,77.0926829 C132.497561,77.3560976 133.37561,77.795122 134.253659,78.2341463 L133.02439,81.9219512 C132.058537,81.395122 131.356098,81.0439024 130.741463,80.8682927 C130.126829,80.6926829 129.512195,80.604878 128.985366,80.604878 C128.282927,80.604878 127.756098,80.7804878 127.404878,81.2195122 C127.053659,81.6585366 126.878049,82.1853659 126.878049,82.8878049 C126.878049,83.3268293 126.965854,83.6780488 127.141463,84.0292683 C127.317073,84.3804878 127.492683,84.6439024 127.843902,84.9073171 C128.195122,85.1707317 128.985366,85.697561 130.214634,86.4878049 C131.882927,87.4536585 132.936585,88.5073171 133.55122,89.4731707 C134.165854,90.5268293 134.429268,91.7560976 134.429268,93.1609756 C134.429268,95.1804878 133.902439,96.7609756 132.760976,97.9902439 C131.531707,99.0439024 129.95122,99.5707317 128.019512,99.5707317 Z"/>
            <path d="M119.678049,99.3073171 L119.765854,99.3073171"/>
            <polygon points="74.7219512 15.9804878 66.9073171 15.9804878 73.2292683 20.5463415 70.7707317 27.9219512 77.0926829 23.3560976 83.3268293 27.9219512 80.9560976 20.5463415 87.1902439 15.9804878 79.4634146 15.9804878 77.0926829 8.60487805"/>
            <polygon points="45.5707317 21.9512195 44.1658537 17.6487805 42.7609756 21.9512195 38.3707317 21.9512195 41.9707317 24.497561 40.5658537 28.7121951 44.1658537 26.1658537 47.7658537 28.7121951 46.3609756 24.497561 49.9609756 21.9512195"/>
            <polygon points="111.336585 21.9512195 110.019512 17.6487805 108.614634 21.9512195 104.136585 21.9512195 107.736585 24.497561 106.419512 28.7121951 110.019512 26.1658537 113.619512 28.7121951 112.214634 24.497561 115.814634 21.9512195"/>
            <polygon points="48.8195122 41.5317073 50.0487805 35.5609756 33.7170732 35.5609756 28.0097561 62.9560976 44.2536585 62.9560976 45.4829268 56.897561 36.5268293 56.897561 37.6682927 51.804878 45.9219512 51.804878 47.3268293 45.8341463 38.9853659 45.8341463 39.8634146 41.5317073"/>
            <path d="M58.9170732,57.8634146 L67.3463415,57.8634146 L67.5219512,62.9560976 L74.6341463,62.9560976 L72.3512195,35.5609756 L62.9560976,35.5609756 L48.995122,62.9560976 L56.6341463,62.9560976 L58.9170732,57.8634146 Z M65.6780488,43.1121951 C66.1170732,42.1463415 66.5560976,41.0926829 66.8195122,40.0390244 C66.7317073,40.7414634 66.7317073,41.5317073 66.7317073,42.497561 L66.7317073,44.0780488 L67.0829268,51.9804878 L61.5512195,51.9804878 L65.6780488,43.1121951 Z"/>
            <path d="M92.897561,41.0926829 C94.3902439,41.0926829 96.2341463,41.6195122 98.3414634,42.7609756 L100.887805,37.2292683 C98.5170732,35.9121951 95.795122,35.2097561 92.8097561,35.2097561 C90.9658537,35.2097561 89.297561,35.5609756 87.804878,36.2634146 C86.3121951,36.9658537 85.1707317,38.0195122 84.3804878,39.3365854 C83.5902439,40.6536585 83.1512195,42.1463415 83.1512195,43.7268293 C83.1512195,45.2195122 83.502439,46.5365854 84.1170732,47.7658537 C84.8195122,48.995122 85.8731707,50.2243902 87.2780488,51.3658537 C88.5073171,52.3317073 89.2097561,53.0341463 89.4731707,53.297561 C89.7365854,53.5609756 90,53.9121951 90.0878049,54.1756098 C90.1756098,54.4390244 90.3512195,54.7902439 90.3512195,55.1414634 C90.3512195,55.8439024 90.0878049,56.3707317 89.6487805,56.8097561 C89.2097561,57.1609756 88.5073171,57.4243902 87.5414634,57.4243902 C86.4,57.4243902 85.2585366,57.1609756 83.8536585,56.7219512 C82.5365854,56.2829268 81.3073171,55.7560976 80.2536585,55.0536585 L80.2536585,61.6390244 C81.1317073,62.2536585 82.1853659,62.6926829 83.4146341,62.9560976 C84.6439024,63.2195122 85.9609756,63.395122 87.2780488,63.395122 C90.5268293,63.395122 93.1609756,62.604878 94.9170732,61.1121951 C96.7609756,59.5317073 97.6390244,57.4243902 97.6390244,54.6146341 C97.6390244,53.0341463 97.2878049,51.7170732 96.5853659,50.4878049 C95.8829268,49.2585366 94.7414634,48.1170732 93.3365854,47.0634146 C92.195122,46.1853659 91.404878,45.4829268 90.9658537,44.9560976 C90.5268293,44.4292683 90.3512195,43.8146341 90.3512195,43.2878049 C90.3512195,42.5853659 90.5268293,42.1463415 90.9658537,41.795122 C91.4926829,41.2682927 92.1073171,41.0926829 92.897561,41.0926829 Z"/>
            <polygon points="115.37561 62.9560976 117.570732 52.3317073 129.073171 35.5609756 120.907317 35.5609756 115.02439 45.7463415 113.356098 35.5609756 105.804878 35.5609756 110.282927 52.3317073 108 62.9560976"/>
        </g>
    </g>
<def><style type="text/css">        #color-1 {
            fill: #4383c4 !important;
        }
        #color-2 {
            fill: #9D9D9D !important;
        }
        #color-3 {
            fill: #281010 !important;
        }</style></def></svg>
