<?xml version="1.0" encoding="UTF-8"?>
<svg xmlns="http://www.w3.org/2000/svg" xmlns:xlink="http://www.w3.org/1999/xlink" width="210px" height="210px" viewBox="0 0 210 210" version="1.1">
    <!-- Generator: Sketch 53.2 (72643) - https://sketchapp.com -->
    <title>SSL 100% Secure</title>
    <desc>Created with Sketch.</desc>
    <g id="SSL-100%-Secure" stroke="none" stroke-width="1">
        <g id="color-1" transform="translate(30.000000, 10.000000)">
            <path d="M139.960733,19.8560209 L73.5157068,0.871727749 C73.2251309,0.77486911 72.8376963,0.77486911 72.5471204,0.77486911 C72.2565445,0.77486911 71.8691099,0.77486911 71.578534,0.871727749 L5.03664921,19.8560209 C2.32460733,20.1465969 0.193717277,22.4712042 0.193717277,25.2801047 L0.193717277,58.7931937 C0.193717277,60.1492147 0.193717277,63.7329843 0.193717277,65.0890052 C0.193717277,86.1073298 3.87434555,105.479058 11.1387435,122.623037 C16.9502618,136.376963 25.0863874,148.774869 35.2565445,159.429319 C52.6910995,177.638743 69.9319372,184.418848 70.6099476,184.612565 C70.6099476,184.612565 70.7068063,184.612565 70.7068063,184.612565 C71.2879581,184.806283 71.9659686,184.903141 72.5471204,184.903141 C73.2251309,184.903141 73.8062827,184.806283 74.3874346,184.612565 C74.3874346,184.612565 74.3874346,184.612565 74.4842932,184.612565 C75.1623037,184.32199 92.5,177.735602 109.837696,159.526178 C120.007853,148.871728 128.143979,136.473822 133.955497,122.719895 C141.219895,105.479058 144.900524,86.1073298 144.900524,64.9921466 C144.900524,63.6361257 144.900524,60.052356 144.900524,58.6963351 L144.900524,25.1832461 C144.803665,22.5680628 142.672775,20.2434555 139.960733,19.8560209 Z M141.123037,58.8900524 L135.989529,58.8900524 C134.342932,58.8900524 132.890052,60.2460733 132.890052,61.9895288 L132.890052,62.1832461 C132.890052,63.8298429 134.246073,65.2827225 135.989529,65.2827225 C136.086387,65.2827225 136.861257,65.2827225 141.123037,65.2827225 C141.123037,155.84555 73.1282723,181.513089 73.1282723,181.513089 C72.934555,181.609948 72.7408377,181.609948 72.5471204,181.609948 C72.3534031,181.609948 72.1596859,181.609948 71.9659686,181.513089 C71.9659686,181.513089 3.87434555,155.361257 3.87434555,65.2827225 C7.26439791,65.2827225 9.0078534,65.2827225 9.0078534,65.2827225 C10.6544503,65.2827225 12.1073298,63.9267016 12.1073298,62.1832461 L12.1073298,61.9895288 C12.1073298,60.3429319 10.7513089,58.8900524 9.0078534,58.8900524 L3.87434555,58.8900524 L3.87434555,25.3769634 C3.87434555,24.408377 4.7460733,23.5366492 5.71465969,23.5366492 L72.6439791,4.45549738 L139.47644,23.5366492 C140.445026,23.5366492 141.316754,24.408377 141.316754,25.3769634 L141.123037,58.8900524 L141.123037,58.8900524 Z"/>
            <path d="M58.5994764,88.1413613 C59.1806283,87.1727749 59.6649215,85.8167539 60.052356,84.0732984 C60.4397906,82.3298429 60.6335079,80.5863874 60.6335079,78.8429319 C60.6335079,77.9712042 60.5366492,77.2931937 60.3429319,76.8089005 C60.1492147,76.3246073 59.8586387,76.1308901 59.3743455,76.1308901 C58.7931937,76.1308901 58.2120419,76.7120419 57.6308901,77.8743455 C57.0497382,79.0366492 56.565445,80.4895288 56.2748691,82.2329843 C55.8874346,83.9764398 55.7905759,85.6230366 55.7905759,87.1727749 C55.7905759,88.0445026 55.8874346,88.7225131 55.9842932,89.1099476 C56.0811518,89.4973822 56.4685864,89.6910995 56.9528796,89.6910995 C57.4371728,89.5942408 58.0183246,89.1099476 58.5994764,88.1413613 Z"/>
            <path d="M77.7774869,76.0340314 C77.1963351,76.0340314 76.6151832,76.6151832 76.0340314,77.7774869 C75.4528796,78.9397906 74.9685864,80.3926702 74.6780105,82.1361257 C74.2905759,83.8795812 74.1937173,85.526178 74.1937173,87.0759162 C74.1937173,87.947644 74.2905759,88.6256545 74.3874346,89.013089 C74.4842932,89.4005236 74.8717277,89.5942408 75.3560209,89.5942408 C75.9371728,89.5942408 76.5183246,89.1099476 77.0994764,88.1413613 C77.6806283,87.1727749 78.1649215,85.8167539 78.552356,84.0732984 C78.9397906,82.3298429 79.1335079,80.5863874 79.1335079,78.8429319 C79.1335079,77.9712042 79.0366492,77.2931937 78.8429319,76.8089005 C78.552356,76.3246073 78.1649215,76.0340314 77.7774869,76.0340314 Z"/>
            <path d="M68.8664921,129.693717 C67.6073298,130.468586 66.8324607,131.921466 66.8324607,133.471204 L66.8324607,137.636126 L77.5837696,137.636126 L77.5837696,137.636126 L77.5837696,133.471204 C77.1963351,129.790576 72.934555,127.175393 68.8664921,129.693717 Z"/>
            <path d="M108.384817,83.9764398 C107.900524,83.9764398 107.41623,84.5575916 107.028796,85.7198953 C106.641361,86.882199 106.447644,88.1413613 106.447644,89.4005236 C106.447644,90.2722513 106.73822,90.6596859 107.222513,90.6596859 C107.803665,90.6596859 108.191099,90.078534 108.578534,88.9162304 C108.965969,87.7539267 109.159686,86.4947644 109.159686,85.2356021 C109.159686,84.7513089 109.062827,84.460733 108.965969,84.2670157 C108.86911,84.0732984 108.675393,83.9764398 108.384817,83.9764398 Z"/>
            <path d="M92.1125654,81.6518325 C92.6937173,81.6518325 93.0811518,81.0706806 93.4685864,79.908377 C93.8560209,78.7460733 94.0497382,77.486911 94.0497382,76.2277487 C94.0497382,75.7434555 93.9528796,75.4528796 93.8560209,75.2591623 C93.7591623,75.065445 93.565445,74.9685864 93.1780105,74.9685864 C92.6937173,74.9685864 92.2094241,75.5497382 91.8219895,76.7120419 C91.434555,77.8743455 91.2408377,79.1335079 91.2408377,80.3926702 C91.2408377,81.1675393 91.5314136,81.6518325 92.1125654,81.6518325 Z"/>
            <path d="M95.7931937,103.251309 C95.2120419,102.863874 94.3403141,102.670157 93.1780105,102.670157 L91.434555,102.670157 L91.434555,107.900524 L93.2748691,107.900524 C94.4371728,107.900524 95.4057592,107.706806 95.8900524,107.222513 C96.4712042,106.73822 96.6649215,106.060209 96.6649215,105.188482 C96.6649215,104.316754 96.3743455,103.638743 95.7931937,103.251309 Z"/>
            <path d="M7.45811518,26.8298429 L7.45811518,55.2094241 L8.91099476,55.2094241 C12.591623,55.2094241 15.5942408,58.2120419 15.5942408,61.8926702 L15.5942408,62.0863874 C15.5942408,65.7670157 12.591623,68.7696335 8.91099476,68.7696335 L7.55497382,68.7696335 C7.94240838,87.2696335 11.4293194,104.413613 17.8219895,119.620419 C23.2460733,132.599476 30.8010471,144.222513 40.3900524,154.198953 C54.7251309,169.308901 69.3507853,176.185864 72.6439791,177.638743 C75.9371728,176.282723 90.2722513,169.599476 104.60733,154.683246 C114.196335,144.706806 121.751309,133.08377 127.272251,120.104712 C133.76178,104.801047 137.151832,87.5602094 137.539267,68.8664921 L136.183246,68.8664921 C132.502618,68.8664921 129.5,65.8638743 129.5,62.1832461 L129.5,61.9895288 C129.5,58.3089005 132.502618,55.3062827 136.183246,55.3062827 L137.636126,55.3062827 L137.636126,26.9267016 L72.6439791,8.42670157 L7.45811518,26.8298429 Z M111.581152,107.028796 L111.581152,109.159686 L105.575916,109.159686 L105.575916,114.099476 L111.968586,114.099476 L111.968586,116.327225 L102.960733,116.327225 L102.960733,100.442408 L111.968586,100.442408 L111.968586,102.670157 L105.575916,102.670157 L105.575916,107.028796 L111.581152,107.028796 L111.581152,107.028796 Z M112.840314,89.8848168 C112.259162,91.3376963 111.484293,92.4031414 110.418848,93.1780105 C109.353403,93.9528796 108.191099,94.3403141 106.835079,94.3403141 C105.188482,94.3403141 103.929319,93.9528796 103.15445,93.0811518 C102.379581,92.2094241 101.895288,90.9502618 101.895288,89.4005236 C101.895288,87.6570681 102.185864,86.0104712 102.767016,84.5575916 C103.348168,83.104712 104.123037,82.039267 105.188482,81.2643979 C106.253927,80.4895288 107.41623,80.1020942 108.86911,80.1020942 C110.418848,80.1020942 111.581152,80.5863874 112.45288,81.4581152 C113.324607,82.3298429 113.712042,83.5890052 113.712042,85.1387435 C113.712042,86.9790576 113.421466,88.5287958 112.840314,89.8848168 Z M41.2617801,115.358639 C40.1963351,116.133508 38.8403141,116.520942 37,116.520942 C35.1596859,116.520942 33.7068063,116.230366 32.6413613,115.649215 L32.6413613,113.227749 C33.3193717,113.518325 34.0942408,113.808901 34.9659686,114.002618 C35.8376963,114.196335 36.5157068,114.293194 37.1937173,114.293194 C38.2591623,114.293194 38.9371728,114.099476 39.421466,113.712042 C39.9057592,113.324607 40.1963351,112.840314 40.1963351,112.162304 C40.1963351,111.581152 40.0026178,111.096859 39.5183246,110.612565 C39.0340314,110.225131 38.1623037,109.740838 36.7094241,109.159686 C35.2565445,108.578534 34.2879581,107.900524 33.6099476,107.125654 C33.0287958,106.350785 32.7382199,105.479058 32.7382199,104.413613 C32.7382199,103.057592 33.2225131,102.089005 34.1910995,101.314136 C35.1596859,100.539267 36.4188482,100.151832 37.9685864,100.151832 C39.5183246,100.151832 40.9712042,100.442408 42.5209424,101.120419 L41.6492147,103.251309 C40.1963351,102.670157 38.9371728,102.379581 37.8717277,102.379581 C37,102.379581 36.4188482,102.573298 35.934555,102.960733 C35.5471204,103.348168 35.2565445,103.832461 35.2565445,104.413613 C35.2565445,104.801047 35.3534031,105.188482 35.5471204,105.479058 C35.7408377,105.769634 36.0314136,106.060209 36.4188482,106.350785 C36.8062827,106.641361 37.5811518,106.931937 38.5497382,107.41623 C39.7120419,107.900524 40.5837696,108.384817 41.0680628,108.772251 C41.6492147,109.159686 42.0366492,109.643979 42.2303665,110.225131 C42.5209424,110.709424 42.617801,111.387435 42.617801,112.065445 C42.8115183,113.518325 42.3272251,114.58377 41.2617801,115.358639 Z M71.4816754,37.2905759 C72.1596859,37.6780105 72.1596859,37.6780105 76.421466,38.7434555 C79.1335079,39.421466 80.8769634,40.1963351 82.2329843,41.2617801 C84.8481675,43.2958115 86.1073298,46.2015707 86.1073298,50.3664921 C86.1073298,53.6596859 85.2356021,56.565445 83.5890052,58.5026178 C81.4581152,61.0209424 78.3586387,62.2801047 74.0968586,62.2801047 C70.9973822,62.2801047 67.9947644,61.5052356 66.0575916,60.1492147 C64.2172775,58.8900524 62.9581152,56.9528796 62.1832461,54.434555 C61.7958115,53.3691099 61.6020942,52.3036649 61.408377,50.2696335 L68.8664921,49.3979058 C68.9633508,50.947644 69.2539267,51.8193717 69.8350785,52.6910995 C70.7068063,54.0471204 72.2565445,54.8219895 74,54.8219895 C76.8089005,54.8219895 78.4554974,53.2722513 78.4554974,50.8507853 C78.4554974,49.4947644 77.8743455,48.2356021 76.9057592,47.7513089 C76.1308901,47.2670157 75.2591623,46.9764398 71.4816754,45.9109948 C68.1884817,45.039267 67.026178,44.4581152 65.6701571,43.2958115 C63.4424084,41.3586387 62.1832461,38.3560209 62.1832461,34.7722513 C62.1832461,27.895288 66.6387435,23.6335079 73.7094241,23.6335079 C78.2617801,23.6335079 81.7486911,25.3769634 83.6858639,28.6701571 C84.5575916,30.1230366 85.0418848,31.4790576 85.526178,33.9973822 L77.8743455,35.0628272 C77.486911,32.1570681 76.1308901,30.9947644 73.4188482,30.9947644 C71.1910995,30.9947644 69.6413613,32.447644 69.6413613,34.4816754 C69.7382199,35.7408377 70.3193717,36.6125654 71.4816754,37.2905759 Z M54.434555,107.028796 L54.434555,109.159686 L48.4293194,109.159686 L48.4293194,114.099476 L54.8219895,114.099476 L54.8219895,116.327225 L45.8141361,116.327225 L45.8141361,100.442408 L54.8219895,100.442408 L54.8219895,102.670157 L48.4293194,102.670157 L48.4293194,107.028796 L54.434555,107.028796 L54.434555,107.028796 Z M51.3350785,92.5 C50.1727749,91.2408377 49.6884817,89.3036649 49.6884817,86.9790576 C49.6884817,83.9764398 50.1727749,81.1675393 51.0445026,78.7460733 C51.9162304,76.3246073 53.1753927,74.3874346 54.7251309,73.1282723 C56.2748691,71.8691099 58.1151832,71.1910995 60.1492147,71.1910995 C61.5052356,71.1910995 62.7643979,71.4816754 63.7329843,72.1596859 C64.7015707,72.8376963 65.4764398,73.7094241 65.960733,74.8717277 C66.4450262,76.0340314 66.7356021,77.3900524 66.7356021,78.9397906 C66.7356021,82.039267 66.2513089,84.7513089 65.3795812,87.1727749 C64.5078534,89.5942408 63.2486911,91.3376963 61.6989529,92.5968586 C60.1492147,93.8560209 58.3089005,94.4371728 56.2748691,94.4371728 C54.1439791,94.4371728 52.4973822,93.8560209 51.3350785,92.5 Z M49.4947644,47.7513089 C48.7198953,47.2670157 47.8481675,46.9764398 44.0706806,45.9109948 C40.7774869,45.039267 39.6151832,44.4581152 38.2591623,43.2958115 C36.0314136,41.3586387 34.7722513,38.3560209 34.7722513,34.7722513 C34.7722513,27.895288 39.2277487,23.6335079 46.2984293,23.6335079 C50.8507853,23.6335079 54.3376963,25.3769634 56.2748691,28.6701571 C57.1465969,30.1230366 57.6308901,31.4790576 58.1151832,33.9973822 L50.4633508,35.0628272 C50.0759162,32.1570681 48.7198953,30.9947644 46.0078534,30.9947644 C43.7801047,30.9947644 42.2303665,32.447644 42.2303665,34.4816754 C42.2303665,35.7408377 42.8115183,36.6125654 43.8769634,37.2905759 C44.5549738,37.6780105 44.5549738,37.6780105 48.8167539,38.7434555 C51.5287958,39.421466 53.2722513,40.1963351 54.6282723,41.2617801 C57.2434555,43.2958115 58.5026178,46.2015707 58.5026178,50.3664921 C58.5026178,53.6596859 57.6308901,56.565445 55.9842932,58.5026178 C53.8534031,61.0209424 50.7539267,62.2801047 46.4921466,62.2801047 C43.3926702,62.2801047 40.3900524,61.5052356 38.4528796,60.1492147 C36.6125654,58.8900524 35.3534031,56.9528796 34.578534,54.434555 C34.1910995,53.3691099 33.9973822,52.3036649 33.8036649,50.2696335 L41.2617801,49.3979058 C41.3586387,50.947644 41.6492147,51.8193717 42.2303665,52.6910995 C43.1020942,54.0471204 44.6518325,54.8219895 46.395288,54.8219895 C49.2041885,54.8219895 50.8507853,53.2722513 50.8507853,50.8507853 C51.0445026,49.4947644 50.4633508,48.2356021 49.4947644,47.7513089 Z M58.4057592,104.123037 C58.986911,102.863874 59.8586387,101.895288 61.0209424,101.314136 C62.1832461,100.636126 63.539267,100.34555 65.0890052,100.34555 C66.7356021,100.34555 68.1884817,100.636126 69.5445026,101.410995 L68.5759162,103.541885 C67.9947644,103.251309 67.5104712,103.057592 66.8324607,102.863874 C66.2513089,102.670157 65.5732984,102.573298 64.9921466,102.573298 C63.539267,102.573298 62.3769634,103.057592 61.5052356,104.123037 C60.6335079,105.188482 60.2460733,106.641361 60.2460733,108.481675 C60.2460733,110.418848 60.6335079,111.871728 61.5052356,112.937173 C62.2801047,113.905759 63.539267,114.390052 65.0890052,114.390052 C65.7670157,114.390052 66.4450262,114.293194 67.026178,114.196335 C67.6073298,114.099476 68.2853403,113.905759 68.9633508,113.712042 L68.9633508,115.939791 C67.7041885,116.424084 66.3481675,116.617801 64.7015707,116.617801 C62.3769634,116.617801 60.6335079,115.939791 59.3743455,114.486911 C58.1151832,113.034031 57.5340314,111.096859 57.5340314,108.481675 C57.4371728,106.73822 57.8246073,105.382199 58.4057592,104.123037 Z M75.7434555,113.421466 C76.3246073,114.002618 77.2931937,114.390052 78.552356,114.390052 C80.973822,114.390052 82.2329843,113.13089 82.2329843,110.515707 L82.2329843,100.539267 L84.8481675,100.539267 L84.8481675,100.539267 L84.8481675,110.806283 C84.8481675,111.968586 84.5575916,113.034031 84.0732984,113.905759 C83.5890052,114.777487 82.8141361,115.455497 81.9424084,115.939791 C80.973822,116.424084 79.8115183,116.617801 78.552356,116.617801 C76.6151832,116.617801 75.065445,116.133508 74,115.068063 C72.934555,114.002618 72.3534031,112.549738 72.3534031,110.806283 L72.3534031,100.539267 L74.9685864,100.539267 L74.9685864,110.612565 C74.7748691,111.871728 75.065445,112.840314 75.7434555,113.421466 Z M83.6858639,87.1727749 C82.8141361,89.5942408 81.5549738,91.3376963 80.0052356,92.5968586 C78.4554974,93.8560209 76.6151832,94.4371728 74.5811518,94.4371728 C72.4502618,94.4371728 70.8036649,93.7591623 69.6413613,92.5 C68.4790576,91.2408377 67.9947644,89.3036649 67.9947644,86.9790576 C67.9947644,83.9764398 68.4790576,81.1675393 69.3507853,78.7460733 C70.2225131,76.3246073 71.4816754,74.3874346 73.0314136,73.1282723 C74.5811518,71.8691099 76.421466,71.1910995 78.4554974,71.1910995 C79.8115183,71.1910995 81.0706806,71.4816754 82.039267,72.1596859 C83.0078534,72.8376963 83.7827225,73.7094241 84.2670157,74.8717277 C84.7513089,76.0340314 85.0418848,77.3900524 85.0418848,78.9397906 C85.0418848,82.039267 84.5575916,84.7513089 83.6858639,87.1727749 Z M58.8900524,139.47644 C58.8900524,138.507853 59.6649215,137.636126 60.7303665,137.636126 L62.5706806,137.636126 L62.5706806,133.471204 C62.5706806,130.274869 64.3141361,127.272251 67.1230366,125.722513 C74.3874346,121.848168 81.7486911,127.078534 81.7486911,134.052356 L81.7486911,134.052356 L81.7486911,134.052356 L81.7486911,134.052356 L81.6518325,134.052356 L81.6518325,137.636126 L81.7486911,137.636126 L83.5890052,137.636126 C84.5575916,137.636126 85.4293194,138.410995 85.4293194,139.47644 L85.4293194,154.005236 L58.7931937,154.005236 L58.7931937,139.47644 L58.8900524,139.47644 Z M42.2303665,71.4816754 L47.0732984,71.4816754 L42.3272251,94.1465969 L36.3219895,94.1465969 L39.0340314,81.7486911 C39.3246073,80.3926702 39.7120419,79.0366492 40.1963351,77.7774869 C39.421466,78.4554974 38.7434555,79.0366492 38.1623037,79.3272251 L35.0628272,81.2643979 L32.7382199,77.3900524 L42.2303665,71.4816754 Z M58.986911,155.167539 L58.986911,155.167539 C58.986911,155.167539 58.986911,155.167539 58.986911,155.167539 L85.4293194,155.167539 C85.1387435,156.426702 83.9764398,157.395288 82.6204188,157.395288 L61.7958115,157.395288 C60.4397906,157.395288 59.2774869,156.426702 58.986911,155.167539 Z M89.7879581,24.5052356 L97.6335079,24.5052356 C97.3429319,26.8298429 97.3429319,28.0890052 97.3429319,31.4790576 L97.3429319,53.5628272 L106.060209,53.5628272 C109.159686,53.5628272 110.32199,53.5628272 112.065445,53.2722513 L112.065445,61.7958115 C110.709424,61.6020942 108.965969,61.5052356 106.060209,61.5052356 L95.1151832,61.5052356 L95.1151832,61.5052356 C92.5968586,61.5052356 91.1439791,61.5052356 89.7879581,61.6020942 C89.9816754,60.052356 90.078534,58.1151832 90.078534,55.1125654 L90.078534,31.6727749 C90.078534,28.5732984 89.9816754,26.6361257 89.7879581,24.5052356 Z M100.732984,116.327225 L97.8272251,116.327225 L94.0497382,110.031414 L91.5314136,110.031414 L91.5314136,116.327225 L88.9162304,116.327225 L88.9162304,100.442408 L93.3717277,100.442408 C95.4057592,100.442408 96.9554974,100.829843 97.9240838,101.604712 C98.8926702,102.379581 99.3769634,103.541885 99.3769634,105.091623 C99.3769634,107.028796 98.3115183,108.481675 96.2774869,109.353403 L100.732984,116.327225 Z M94.0497382,94.1465969 L89.4005236,94.1465969 L106.253927,71.4816754 L110.709424,71.4816754 L94.0497382,94.1465969 Z M89.9816754,72.3534031 C91.0471204,71.578534 92.2094241,71.1910995 93.6623037,71.1910995 C95.2120419,71.1910995 96.3743455,71.6753927 97.2460733,72.5471204 C98.117801,73.4188482 98.5052356,74.6780105 98.5052356,76.2277487 C98.5052356,77.9712042 98.2146597,79.5209424 97.6335079,80.8769634 C97.052356,82.3298429 96.2774869,83.395288 95.2120419,84.1701571 C94.1465969,84.9450262 92.9842932,85.3324607 91.6282723,85.3324607 C89.9816754,85.3324607 88.7225131,84.9450262 87.947644,84.0732984 C87.1727749,83.2015707 86.6884817,81.9424084 86.6884817,80.3926702 C86.6884817,78.6492147 86.9790576,77.0026178 87.5602094,75.5497382 C88.1413613,74.1937173 88.9162304,73.1282723 89.9816754,72.3534031 Z"/>
            <path d="M70.7068063,143.835079 C70.6099476,143.931937 70.4162304,144.028796 70.3193717,144.222513 C69.3507853,145.675393 69.9319372,147.031414 70.9973822,147.709424 L70.9973822,150.034031 L73.4188482,150.034031 L73.4188482,147.709424 C74.0968586,147.32199 74.5811518,146.54712 74.5811518,145.675393 C74.5811518,143.931937 72.5471204,142.575916 70.7068063,143.835079 Z"/>
        </g>
    </g>
<def><style type="text/css">        #color-1 {
            fill: #4383c4 !important;
        }
        #color-2 {
            fill: #9D9D9D !important;
        }
        #color-3 {
            fill: #281010 !important;
        }</style></def></svg>
